<svg xmlns="http://www.w3.org/2000/svg" xmlns:v="https://svgstorm.com"
viewBox = "0 0 260 270"
width="260"
height="270">
<g fill="None" fill-opacity="0.0" stroke="#000000" stroke-opacity="0.00" stroke-width="0.3"><path d="
M 0.00 270.00 
L 260.00 270.00
L 260.00 0.00
L 0.00 0.00
L 0.00 270.00
M 183.00 20.00 
C 190.16 20.39 197.03 22.03 203.00 26.00
C 202.09 29.13 197.99 31.80 195.00 33.00
C 193.28 34.41 191.79 36.59 190.00 38.00
C 188.49 39.19 187.00 40.97 185.00 41.00
C 196.33 45.00 210.65 44.74 222.00 51.00
C 223.94 53.79 218.27 55.60 216.00 57.00
C 213.96 58.26 211.97 58.95 210.00 60.00
C 208.27 61.18 206.94 62.83 205.00 64.00
C 203.62 64.83 202.28 65.30 201.00 66.00
C 199.96 66.71 199.06 68.35 198.00 69.00
C 198.13 76.56 203.85 83.64 204.00 92.00
C 204.22 93.82 204.95 96.54 205.00 99.00
C 205.11 104.33 205.00 109.67 205.00 115.00
C 205.00 117.00 205.07 119.01 205.00 121.00
C 204.93 122.94 204.23 124.70 204.00 126.00
C 204.00 127.00 204.03 128.00 204.00 129.00
C 203.98 129.67 204.81 136.22 205.00 136.00
C 207.47 135.97 208.28 135.10 211.00 136.00
C 213.32 136.77 214.67 137.83 216.00 140.00
C 222.11 149.97 216.01 166.91 211.00 176.00
C 208.65 180.26 203.08 182.58 201.00 186.00
C 200.45 187.13 200.26 189.66 200.00 191.00
C 198.59 198.28 197.91 203.40 193.00 209.00
C 192.23 209.87 191.67 211.11 191.00 212.00
C 189.49 214.00 187.82 215.43 186.00 217.00
C 181.76 220.66 177.57 225.55 173.00 229.00
C 172.11 229.67 170.77 230.29 170.00 231.00
C 168.23 232.62 167.12 234.71 165.00 236.00
C 164.36 236.39 163.61 236.63 163.00 237.00
C 158.10 241.57 153.32 245.93 148.00 250.00
C 147.68 250.24 147.00 250.00 147.00 250.00
C 145.48 252.34 143.29 253.57 141.00 255.00
C 140.64 255.22 140.00 255.00 140.00 255.00
C 138.63 257.10 137.20 257.97 135.00 259.00
C 133.90 259.51 133.12 259.62 132.00 260.00
C 123.98 262.70 116.75 253.27 110.25 248.75 C 103.75 244.23 97.14 238.25 91.00 233.00
C 89.19 231.46 87.63 229.56 86.00 228.00
C 84.85 226.90 83.19 225.97 82.00 225.00
C 75.65 219.79 66.51 212.33 63.00 205.00
C 59.75 198.20 60.63 189.63 56.00 184.00
C 54.08 182.00 51.27 180.60 50.00 178.00
C 49.80 177.60 50.00 177.00 50.00 177.00
C 47.81 175.63 47.88 174.16 47.00 172.00
C 45.48 168.26 44.59 165.04 44.00 161.00
C 43.36 158.48 42.21 156.09 42.00 153.00
C 41.69 148.39 41.62 143.89 44.00 140.00
C 45.28 137.91 46.63 136.46 49.00 136.00
C 49.48 135.91 50.00 136.00 50.00 136.00
C 51.58 134.65 53.78 134.99 56.00 135.00
C 56.24 134.67 56.00 134.00 56.00 134.00
C 56.00 132.33 56.00 130.67 56.00 129.00
C 56.00 128.50 56.00 127.50 56.00 127.00
C 55.08 124.83 55.05 122.73 55.00 120.00
C 54.95 117.34 55.00 114.66 55.00 112.00
C 55.00 104.94 54.98 97.31 56.00 91.00
C 56.26 86.21 57.36 82.39 59.00 78.00
C 59.56 76.51 60.38 75.24 61.00 74.00
C 62.29 70.40 63.89 67.27 66.00 64.00
C 70.05 57.73 76.09 51.66 82.00 47.00
C 84.95 44.67 87.96 42.77 91.00 41.00
C 94.57 38.40 97.76 35.91 102.00 34.00
C 103.10 33.50 103.86 33.36 105.00 33.00
C 107.56 31.79 110.18 30.11 113.00 29.00
C 121.45 25.68 129.84 21.99 139.00 21.00
C 137.82 25.60 134.89 29.61 133.00 34.00
C 133.28 33.75 134.00 34.00 134.00 34.00
C 135.83 33.10 137.41 31.18 139.00 30.00
C 141.60 28.07 144.06 27.06 147.00 26.00
C 148.98 25.02 150.70 23.77 153.00 23.00
C 157.58 21.47 162.02 20.27 167.00 20.00
C 172.17 19.16 177.89 19.17 183.00 20.00 Z"/>
</g>
<g fill="None" fill-opacity="0.0" stroke="#3298C2" stroke-opacity="0.27" stroke-width="0.3"><path d="
M 167.00 20.00 
C 172.23 19.72 177.77 19.72 183.00 20.00
C 177.89 19.17 172.17 19.16 167.00 20.00 Z"/>
</g>
<g fill="None" fill-opacity="0.0" stroke="#141B2E" stroke-opacity="0.99" stroke-width="0.3"><path d="
M 153.00 23.00 
C 151.07 23.89 149.21 25.21 147.00 26.00
C 144.06 27.06 141.60 28.07 139.00 30.00
C 136.85 31.88 134.96 36.17 132.00 37.00
C 129.74 38.91 132.82 34.36 133.00 34.00
C 134.89 29.61 137.82 25.60 139.00 21.00
C 129.84 21.99 121.45 25.68 113.00 29.00
C 110.38 30.40 108.03 32.03 105.00 33.00
C 103.86 33.36 103.10 33.50 102.00 34.00
C 98.50 36.28 94.80 38.79 91.00 41.00
C 87.96 42.77 84.95 44.67 82.00 47.00
C 76.53 52.05 70.52 58.45 66.00 64.00
C 63.89 67.27 62.29 70.40 61.00 74.00
C 60.45 75.54 59.65 76.73 59.00 78.00
C 57.36 82.39 56.26 86.21 56.00 91.00
C 55.62 97.95 56.00 105.04 56.00 112.00
C 56.00 114.67 56.00 117.33 56.00 120.00
C 56.00 122.33 56.00 124.67 56.00 127.00
C 56.00 127.50 56.00 128.50 56.00 129.00
C 56.37 130.22 57.24 131.15 57.00 133.00
C 72.54 108.69 104.60 117.09 130.00 116.00 C 155.40 114.91 185.84 111.58 203.00 133.00
C 202.95 131.25 203.81 130.07 204.00 129.00
C 204.03 128.00 204.00 127.00 204.00 126.00
C 204.00 124.33 204.00 122.67 204.00 121.00
C 204.00 119.00 204.00 117.00 204.00 115.00
C 204.00 109.67 204.00 104.33 204.00 99.00
C 204.00 96.67 204.04 94.33 204.00 92.00
C 203.85 83.64 198.13 76.56 198.00 69.00
C 197.97 67.30 198.75 67.22 201.00 66.00
C 202.28 65.30 203.62 64.83 205.00 64.00
C 206.66 62.75 208.01 61.06 210.00 60.00
C 211.97 58.95 213.96 58.26 216.00 57.00
C 218.09 55.39 221.13 53.30 222.00 51.00
C 210.65 44.74 196.33 45.00 185.00 41.00
C 187.00 40.97 188.49 39.19 190.00 38.00
C 191.75 36.38 193.00 34.40 195.00 33.00
C 197.99 31.80 202.09 29.13 203.00 26.00
C 197.03 22.03 190.16 20.39 183.00 20.00
C 177.77 19.72 172.23 19.72 167.00 20.00
C 162.02 20.27 157.58 21.47 153.00 23.00 Z"/>
</g>
<g fill="None" fill-opacity="0.0" stroke="#3194BF" stroke-opacity="0.28" stroke-width="0.3"><path d="
M 147.00 26.00 
C 149.21 25.21 151.07 23.89 153.00 23.00
C 150.70 23.77 148.98 25.02 147.00 26.00 Z"/>
</g>
<g fill="None" fill-opacity="0.0" stroke="#3181B3" stroke-opacity="0.31" stroke-width="0.3"><path d="
M 105.00 33.00 
C 108.03 32.03 110.38 30.40 113.00 29.00
C 110.18 30.11 107.56 31.79 105.00 33.00 Z"/>
</g>
<g fill="None" fill-opacity="0.0" stroke="#29628B" stroke-opacity="0.52" stroke-width="0.3"><path d="
M 134.00 34.00 
C 133.30 34.76 132.73 36.39 132.00 37.00
C 134.96 36.17 136.85 31.88 139.00 30.00
C 137.41 31.18 135.83 33.10 134.00 34.00 Z"/>
</g>
<g fill="None" fill-opacity="0.0" stroke="#34A0D2" stroke-opacity="0.19" stroke-width="0.3"><path d="
M 190.00 38.00 
C 191.79 36.59 193.28 34.41 195.00 33.00
C 193.00 34.40 191.75 36.38 190.00 38.00 Z"/>
</g>
<g fill="None" fill-opacity="0.0" stroke="#3492C3" stroke-opacity="0.25" stroke-width="0.3"><path d="
M 91.00 41.00 
C 94.80 38.79 98.50 36.28 102.00 34.00
C 97.76 35.91 94.57 38.40 91.00 41.00 Z"/>
</g>
<g fill="None" fill-opacity="0.0" stroke="#3693C8" stroke-opacity="0.25" stroke-width="0.3"><path d="
M 132.00 37.00 
C 132.73 36.39 133.30 34.76 134.00 34.00
C 134.00 34.00 133.28 33.75 133.00 34.00
C 132.82 34.36 129.74 38.91 132.00 37.00 Z"/>
</g>
<g fill="None" fill-opacity="0.0" stroke="#3897CD" stroke-opacity="0.21" stroke-width="0.3"><path d="
M 66.00 64.00 
C 70.52 58.45 76.53 52.05 82.00 47.00
C 76.09 51.66 70.05 57.73 66.00 64.00 Z"/>
</g>
<g fill="None" fill-opacity="0.0" stroke="#4192C8" stroke-opacity="0.23" stroke-width="0.3"><path d="
M 216.00 57.00 
C 218.27 55.60 223.94 53.79 222.00 51.00
C 221.13 53.30 218.09 55.39 216.00 57.00 Z"/>
</g>
<g fill="None" fill-opacity="0.0" stroke="#3199C3" stroke-opacity="0.25" stroke-width="0.3"><path d="
M 205.00 64.00 
C 206.94 62.83 208.27 61.18 210.00 60.00
C 208.01 61.06 206.66 62.75 205.00 64.00 Z"/>
</g>
<g fill="None" fill-opacity="0.0" stroke="#3283B4" stroke-opacity="0.33" stroke-width="0.3"><path d="
M 198.00 69.00 
C 199.06 68.35 199.96 66.71 201.00 66.00
C 198.75 67.22 197.97 67.30 198.00 69.00 Z"/>
</g>
<g fill="None" fill-opacity="0.0" stroke="#4779BA" stroke-opacity="0.30" stroke-width="0.3"><path d="
M 59.00 78.00 
C 59.65 76.73 60.45 75.54 61.00 74.00
C 60.38 75.24 59.56 76.51 59.00 78.00 Z"/>
</g>
<g fill="None" fill-opacity="0.0" stroke="#224D6D" stroke-opacity="0.66" stroke-width="0.3"><path d="
M 55.00 112.00 
C 55.00 111.96 56.00 112.00 56.00 112.00
C 56.00 105.04 55.62 97.95 56.00 91.00
C 54.98 97.31 55.00 104.94 55.00 112.00 Z"/>
</g>
<g fill="None" fill-opacity="0.0" stroke="#2E74A3" stroke-opacity="0.40" stroke-width="0.3"><path d="
M 204.00 99.00 
C 204.01 99.07 205.00 99.00 205.00 99.00
C 204.95 96.54 204.22 93.82 204.00 92.00
C 204.04 94.33 204.00 96.67 204.00 99.00 Z"/>
</g>
<g fill="None" fill-opacity="0.0" stroke="#1E3E5D" stroke-opacity="0.75" stroke-width="0.3"><path d="
M 204.00 115.00 
C 204.02 114.90 205.00 115.00 205.00 115.00
C 205.00 109.67 205.11 104.33 205.00 99.00
C 205.00 99.00 204.01 99.07 204.00 99.00
C 204.00 104.33 204.00 109.67 204.00 115.00 Z"/>
</g>
<g fill="None" fill-opacity="0.0" stroke="#2A6691" stroke-opacity="0.49" stroke-width="0.3"><path d="
M 55.00 120.00 
C 55.00 120.04 56.00 120.00 56.00 120.00
C 56.00 117.33 56.00 114.67 56.00 112.00
C 56.00 112.00 55.00 111.96 55.00 112.00
C 55.00 114.66 54.95 117.34 55.00 120.00 Z"/>
</g>
<g fill="None" fill-opacity="0.0" stroke="#2F76A5" stroke-opacity="0.40" stroke-width="0.3"><path d="
M 204.00 121.00 
C 204.05 120.85 205.00 121.00 205.00 121.00
C 205.07 119.01 205.00 117.00 205.00 115.00
C 205.00 115.00 204.02 114.90 204.00 115.00
C 204.00 117.00 204.00 119.00 204.00 121.00 Z"/>
</g>
<g fill="None" fill-opacity="0.0" stroke="#020202" stroke-opacity="1.00" stroke-width="0.3"><path d="
M 57.00 133.00 
C 56.94 133.49 57.00 134.00 57.00 134.00
C 55.49 141.75 48.99 149.31 51.78 158.22 C 54.56 167.14 54.90 173.31 62.00 180.00
C 63.98 181.87 66.78 183.41 69.00 185.00
C 71.01 186.43 72.64 186.97 74.00 189.00
C 83.45 193.23 105.55 193.88 113.75 181.75 C 121.95 169.62 137.17 168.38 145.75 181.25 C 154.33 194.12 174.82 192.88 186.00 188.00
C 196.68 183.34 200.44 177.11 205.92 166.92 C 211.41 156.74 207.02 144.95 203.00 135.00
C 202.83 134.57 203.02 133.50 203.00 133.00
C 185.84 111.58 155.40 114.91 130.00 116.00 C 104.60 117.09 72.54 108.69 57.00 133.00
M 178.00 120.00 
C 189.12 121.99 198.71 131.47 202.78 142.22 C 206.84 152.98 204.55 168.63 195.25 177.25 C 185.95 185.87 172.39 189.59 159.78 185.22 C 147.16 180.85 143.69 168.34 130.00 168.00 C 116.31 167.66 112.36 181.83 99.78 185.78 C 87.19 189.72 73.08 185.36 64.25 176.75 C 55.43 168.13 52.09 151.96 57.32 141.32 C 62.56 130.68 69.67 120.99 83.07 120.07 C 96.48 119.16 115.59 119.29 130.00 120.00 C 144.41 120.71 163.56 117.41 178.00 120.00 Z"/>
</g>
<g fill="None" fill-opacity="0.0" stroke="#3B97D1" stroke-opacity="0.17" stroke-width="0.3"><path d="
M 56.00 127.00 
C 56.00 124.67 56.00 122.33 56.00 120.00
C 56.00 120.00 55.00 120.04 55.00 120.00
C 55.05 122.73 55.08 124.83 56.00 127.00 Z"/>
</g>
<g fill="None" fill-opacity="0.0" stroke="#FCFCFC" stroke-opacity="1.00" stroke-width="0.3"><path d="
M 178.00 120.00 
C 163.56 117.41 144.41 120.71 130.00 120.00 C 115.59 119.29 96.48 119.16 83.07 120.07 C 69.67 120.99 62.56 130.68 57.32 141.32 C 52.09 151.96 55.43 168.13 64.25 176.75 C 73.08 185.36 87.19 189.72 99.78 185.78 C 112.36 181.83 116.31 167.66 130.00 168.00 C 143.69 168.34 147.16 180.85 159.78 185.22 C 172.39 189.59 185.95 185.87 195.25 177.25 C 204.55 168.63 206.84 152.98 202.78 142.22 C 198.71 131.47 189.12 121.99 178.00 120.00
M 168.00 133.00 
C 176.08 134.77 172.90 149.24 164.33 146.67 C 155.75 144.10 159.31 131.10 168.00 133.00
M 93.00 149.00 
C 95.68 150.88 102.32 147.12 105.00 149.00
C 106.72 150.20 106.68 156.82 105.00 158.00
C 102.32 159.88 95.68 156.12 93.00 158.00
C 91.63 161.46 95.27 169.71 92.00 172.00
C 91.40 172.42 84.60 172.42 84.00 172.00
C 80.74 169.72 84.37 161.40 83.00 158.00
C 80.32 156.12 73.68 159.88 71.00 158.00
C 69.28 156.80 69.32 150.18 71.00 149.00
C 73.68 147.12 80.32 150.88 83.00 149.00
C 84.37 145.54 80.73 137.29 84.00 135.00
C 84.60 134.58 91.40 134.58 92.00 135.00
C 95.26 137.28 91.63 145.60 93.00 149.00
M 155.00 146.00 
C 163.08 147.77 159.90 162.24 151.33 159.67 C 142.75 157.10 146.31 144.10 155.00 146.00
M 181.00 146.00 
C 189.08 147.77 185.90 162.24 177.33 159.67 C 168.75 157.10 172.31 144.10 181.00 146.00
M 168.00 159.00 
C 176.33 160.82 172.84 174.79 164.00 172.00 C 155.16 169.21 160.05 157.26 168.00 159.00 Z"/>
</g>
<g fill="None" fill-opacity="0.0" stroke="#3C9AD5" stroke-opacity="0.15" stroke-width="0.3"><path d="
M 204.00 126.00 
C 204.23 124.70 204.93 122.94 205.00 121.00
C 205.00 121.00 204.05 120.85 204.00 121.00
C 204.00 122.67 204.00 124.33 204.00 126.00 Z"/>
</g>
<g fill="None" fill-opacity="0.0" stroke="#1D3856" stroke-opacity="0.75" stroke-width="0.3"><path d="
M 56.00 134.00 
C 56.25 133.75 57.00 134.00 57.00 134.00
C 57.00 134.00 56.94 133.49 57.00 133.00
C 57.24 131.15 56.37 130.22 56.00 129.00
C 56.00 130.67 56.00 132.33 56.00 134.00 Z"/>
</g>
<g fill="None" fill-opacity="0.0" stroke="#204464" stroke-opacity="0.68" stroke-width="0.3"><path d="
M 203.00 133.00 
C 203.02 133.50 202.83 134.57 203.00 135.00
C 203.62 134.88 204.26 136.01 205.00 136.00
C 204.81 136.22 203.98 129.67 204.00 129.00
C 203.81 130.07 202.95 131.25 203.00 133.00 Z"/>
</g>
<g fill="None" fill-opacity="0.0" stroke="#D8413E" stroke-opacity="1.00" stroke-width="0.3"><path d="
M 168.00 133.00 
C 159.31 131.10 155.75 144.10 164.33 146.67 C 172.90 149.24 176.08 134.77 168.00 133.00 Z"/>
</g>
<g fill="None" fill-opacity="0.0" stroke="#151C2F" stroke-opacity="0.98" stroke-width="0.3"><path d="
M 56.00 135.00 
C 54.93 136.46 51.79 136.19 50.00 136.00
C 50.00 136.00 49.48 135.91 49.00 136.00
C 47.77 136.79 44.96 138.78 44.00 140.00
C 41.62 143.89 41.69 148.39 42.00 153.00
C 42.37 155.25 43.60 158.25 44.00 161.00
C 44.59 165.04 45.48 168.26 47.00 172.00
C 47.79 173.56 49.27 175.15 50.00 177.00
C 50.00 177.00 49.80 177.60 50.00 178.00
C 52.40 179.68 54.21 181.82 56.00 184.00
C 60.63 189.63 59.75 198.20 63.00 205.00
C 65.18 208.60 69.71 212.19 73.00 215.00
C 75.53 217.16 77.72 219.72 80.00 222.00
C 81.90 223.90 84.12 226.19 86.00 228.00
C 87.15 229.10 88.81 230.03 90.00 231.00
C 96.36 236.22 102.35 242.54 109.08 246.92 C 115.81 251.29 123.16 261.19 132.00 260.00
C 133.12 259.62 133.90 259.51 135.00 259.00
C 136.62 257.97 138.19 256.12 140.00 255.00
C 140.00 255.00 140.64 255.22 141.00 255.00
C 142.52 252.66 144.71 251.43 147.00 250.00
C 147.00 250.00 147.68 250.24 148.00 250.00
C 151.29 245.29 158.10 239.98 163.00 237.00
C 163.61 236.63 164.36 236.39 165.00 236.00
C 166.59 234.52 168.50 232.50 170.00 231.00
C 171.67 229.33 173.22 227.52 175.00 226.00
C 178.09 223.36 181.40 218.76 185.00 217.00
C 187.48 214.52 190.76 211.57 193.00 209.00
C 197.18 204.20 198.29 196.50 200.00 191.00
C 200.26 189.66 200.45 187.13 201.00 186.00
C 202.69 182.49 208.69 179.33 211.00 176.00
C 216.01 166.91 222.11 149.97 216.00 140.00
C 215.13 138.89 212.06 136.47 211.00 136.00
C 208.28 135.10 207.47 135.97 205.00 136.00
C 204.26 136.01 203.62 134.88 203.00 135.00
C 207.02 144.95 211.41 156.74 205.92 166.92 C 200.44 177.11 196.68 183.34 186.00 188.00
C 176.61 198.56 167.46 210.51 151.99 203.01 C 136.52 195.51 123.95 196.34 108.78 202.78 C 93.60 209.21 82.39 201.48 74.00 189.00
C 72.64 186.97 71.01 186.43 69.00 185.00
C 71.59 189.75 70.88 196.25 76.75 199.25 C 82.62 202.24 83.78 207.09 90.08 208.92 C 96.37 210.76 101.52 208.23 107.67 206.67 C 113.82 205.11 119.98 204.06 126.00 202.00
C 126.00 219.33 126.00 236.67 126.00 254.00
C 111.70 244.96 100.50 234.80 87.25 223.75 C 73.99 212.70 60.69 198.11 62.00 180.00
C 54.90 173.31 54.56 167.14 51.78 158.22 C 48.99 149.31 55.49 141.75 57.00 134.00
C 57.00 134.00 56.25 133.75 56.00 134.00
C 56.00 134.00 56.24 134.67 56.00 135.00 Z"/>
</g>
<g fill="None" fill-opacity="0.0" stroke="#39ADDE" stroke-opacity="0.12" stroke-width="0.3"><path d="
M 50.00 136.00 
C 51.79 136.19 54.93 136.46 56.00 135.00
C 53.78 134.99 51.58 134.65 50.00 136.00 Z"/>
</g>
<g fill="None" fill-opacity="0.0" stroke="#EB9D9D" stroke-opacity="1.00" stroke-width="0.3"><path d="
M 83.00 149.00 
C 86.26 146.72 82.63 138.40 84.00 135.00
C 80.73 137.29 84.37 145.54 83.00 149.00 Z"/>
</g>
<g fill="None" fill-opacity="0.0" stroke="#D42D2C" stroke-opacity="1.00" stroke-width="0.3"><path d="
M 83.00 149.00 
C 80.32 150.88 73.68 147.12 71.00 149.00
C 71.00 152.00 71.00 155.00 71.00 158.00
C 73.68 159.88 80.32 156.12 83.00 158.00
C 86.26 160.28 82.63 168.60 84.00 172.00
C 84.60 172.42 91.40 172.42 92.00 172.00
C 93.37 168.54 89.73 160.29 93.00 158.00
C 95.68 156.12 102.32 159.88 105.00 158.00
C 105.00 155.00 105.00 152.00 105.00 149.00
C 102.32 147.12 95.68 150.88 93.00 149.00
C 89.74 146.72 93.37 138.40 92.00 135.00
C 91.40 134.58 84.60 134.58 84.00 135.00
C 82.63 138.40 86.26 146.72 83.00 149.00 Z"/>
</g>
<g fill="None" fill-opacity="0.0" stroke="#E78C8C" stroke-opacity="1.00" stroke-width="0.3"><path d="
M 93.00 149.00 
C 91.63 145.60 95.26 137.28 92.00 135.00
C 93.37 138.40 89.74 146.72 93.00 149.00 Z"/>
</g>
<g fill="None" fill-opacity="0.0" stroke="#348ABD" stroke-opacity="0.26" stroke-width="0.3"><path d="
M 44.00 140.00 
C 44.96 138.78 47.77 136.79 49.00 136.00
C 46.63 136.46 45.28 137.91 44.00 140.00 Z"/>
</g>
<g fill="None" fill-opacity="0.0" stroke="#3381B1" stroke-opacity="0.33" stroke-width="0.3"><path d="
M 216.00 140.00 
C 214.67 137.83 213.32 136.77 211.00 136.00
C 212.06 136.47 215.13 138.89 216.00 140.00 Z"/>
</g>
<g fill="None" fill-opacity="0.0" stroke="#D8423E" stroke-opacity="1.00" stroke-width="0.3"><path d="
M 155.00 146.00 
C 146.31 144.10 142.75 157.10 151.33 159.67 C 159.90 162.24 163.08 147.77 155.00 146.00 Z"/>
</g>
<g fill="None" fill-opacity="0.0" stroke="#D8423E" stroke-opacity="1.00" stroke-width="0.3"><path d="
M 181.00 146.00 
C 172.31 144.10 168.75 157.10 177.33 159.67 C 185.90 162.24 189.08 147.77 181.00 146.00 Z"/>
</g>
<g fill="None" fill-opacity="0.0" stroke="#E78C8C" stroke-opacity="1.00" stroke-width="0.3"><path d="
M 71.00 158.00 
C 71.00 155.00 71.00 152.00 71.00 149.00
C 69.32 150.18 69.28 156.80 71.00 158.00 Z"/>
</g>
<g fill="None" fill-opacity="0.0" stroke="#E88C8C" stroke-opacity="1.00" stroke-width="0.3"><path d="
M 105.00 158.00 
C 106.68 156.82 106.72 150.20 105.00 149.00
C 105.00 152.00 105.00 155.00 105.00 158.00 Z"/>
</g>
<g fill="None" fill-opacity="0.0" stroke="#2F74A3" stroke-opacity="0.40" stroke-width="0.3"><path d="
M 44.00 161.00 
C 43.60 158.25 42.37 155.25 42.00 153.00
C 42.21 156.09 43.36 158.48 44.00 161.00 Z"/>
</g>
<g fill="None" fill-opacity="0.0" stroke="#EB9D9D" stroke-opacity="1.00" stroke-width="0.3"><path d="
M 84.00 172.00 
C 82.63 168.60 86.26 160.28 83.00 158.00
C 84.37 161.40 80.74 169.72 84.00 172.00 Z"/>
</g>
<g fill="None" fill-opacity="0.0" stroke="#E78C8C" stroke-opacity="1.00" stroke-width="0.3"><path d="
M 92.00 172.00 
C 95.27 169.71 91.63 161.46 93.00 158.00
C 89.73 160.29 93.37 168.54 92.00 172.00 Z"/>
</g>
<g fill="None" fill-opacity="0.0" stroke="#D73E3B" stroke-opacity="1.00" stroke-width="0.3"><path d="
M 168.00 159.00 
C 160.05 157.26 155.16 169.21 164.00 172.00 C 172.84 174.79 176.33 160.82 168.00 159.00 Z"/>
</g>
<g fill="None" fill-opacity="0.0" stroke="#F4CE92" stroke-opacity="1.00" stroke-width="0.3"><path d="
M 74.00 189.00 
C 82.39 201.48 93.60 209.21 108.78 202.78 C 123.95 196.34 136.52 195.51 151.99 203.01 C 167.46 210.51 176.61 198.56 186.00 188.00
C 174.82 192.88 154.33 194.12 145.75 181.25 C 137.17 168.38 121.95 169.62 113.75 181.75 C 105.55 193.88 83.45 193.23 74.00 189.00 Z"/>
</g>
<g fill="None" fill-opacity="0.0" stroke="#3A96CC" stroke-opacity="0.20" stroke-width="0.3"><path d="
M 50.00 177.00 
C 49.27 175.15 47.79 173.56 47.00 172.00
C 47.88 174.16 47.81 175.63 50.00 177.00 Z"/>
</g>
<g fill="None" fill-opacity="0.0" stroke="#418CCA" stroke-opacity="0.22" stroke-width="0.3"><path d="
M 201.00 186.00 
C 203.08 182.58 208.65 180.26 211.00 176.00
C 208.69 179.33 202.69 182.49 201.00 186.00 Z"/>
</g>
<g fill="None" fill-opacity="0.0" stroke="#3790C7" stroke-opacity="0.22" stroke-width="0.3"><path d="
M 56.00 184.00 
C 54.21 181.82 52.40 179.68 50.00 178.00
C 51.27 180.60 54.08 182.00 56.00 184.00 Z"/>
</g>
<g fill="None" fill-opacity="0.0" stroke="#535762" stroke-opacity="1.00" stroke-width="0.3"><path d="
M 69.00 185.00 
C 66.78 183.41 63.98 181.87 62.00 180.00
C 60.69 198.11 73.99 212.70 87.25 223.75 C 100.50 234.80 111.70 244.96 126.00 254.00
C 126.00 236.67 126.00 219.33 126.00 202.00
C 119.98 204.06 113.82 205.11 107.67 206.67 C 101.52 208.23 96.37 210.76 90.08 208.92 C 83.78 207.09 82.62 202.24 76.75 199.25 C 70.88 196.25 71.59 189.75 69.00 185.00 Z"/>
</g>
<g fill="None" fill-opacity="0.0" stroke="#338AB8" stroke-opacity="0.29" stroke-width="0.3"><path d="
M 193.00 209.00 
C 197.91 203.40 198.59 198.28 200.00 191.00
C 198.29 196.50 197.18 204.20 193.00 209.00 Z"/>
</g>
<g fill="None" fill-opacity="0.0" stroke="#3DA1DD" stroke-opacity="0.12" stroke-width="0.3"><path d="
M 82.00 225.00 
C 81.23 224.18 80.72 222.78 80.00 222.00
C 77.92 219.73 75.15 217.15 73.00 215.00
C 69.71 212.19 65.18 208.60 63.00 205.00
C 66.51 212.33 75.65 219.79 82.00 225.00 Z"/>
</g>
<g fill="None" fill-opacity="0.0" stroke="#265C84" stroke-opacity="0.56" stroke-width="0.3"><path d="
M 185.00 217.00 
C 185.40 216.80 186.00 217.00 186.00 217.00
C 187.42 214.97 189.45 213.69 191.00 212.00
C 191.67 211.11 192.23 209.87 193.00 209.00
C 190.76 211.57 187.48 214.52 185.00 217.00 Z"/>
</g>
<g fill="None" fill-opacity="0.0" stroke="#55AAFF" stroke-opacity="0.01" stroke-width="0.3"><path d="
M 186.00 217.00 
C 187.82 215.43 189.49 214.00 191.00 212.00
C 189.45 213.69 187.42 214.97 186.00 217.00 Z"/>
</g>
<g fill="None" fill-opacity="0.0" stroke="#1A304A" stroke-opacity="0.83" stroke-width="0.3"><path d="
M 80.00 222.00 
C 77.72 219.72 75.53 217.16 73.00 215.00
C 75.15 217.15 77.92 219.73 80.00 222.00 Z"/>
</g>
<g fill="None" fill-opacity="0.0" stroke="#4493D4" stroke-opacity="0.18" stroke-width="0.3"><path d="
M 175.00 226.00 
C 174.26 226.81 173.73 228.27 173.00 229.00
C 177.57 225.55 181.76 220.66 186.00 217.00
C 186.00 217.00 185.40 216.80 185.00 217.00
C 181.40 218.76 178.09 223.36 175.00 226.00 Z"/>
</g>
<g fill="None" fill-opacity="0.0" stroke="#2B6994" stroke-opacity="0.48" stroke-width="0.3"><path d="
M 82.00 225.00 
C 83.19 225.97 84.85 226.90 86.00 228.00
C 84.12 226.19 81.90 223.90 80.00 222.00
C 80.72 222.78 81.23 224.18 82.00 225.00 Z"/>
</g>
<g fill="None" fill-opacity="0.0" stroke="#26587F" stroke-opacity="0.57" stroke-width="0.3"><path d="
M 170.00 231.00 
C 170.77 230.29 172.11 229.67 173.00 229.00
C 173.73 228.27 174.26 226.81 175.00 226.00
C 173.22 227.52 171.67 229.33 170.00 231.00 Z"/>
</g>
<g fill="None" fill-opacity="0.0" stroke="#3FA3E0" stroke-opacity="0.09" stroke-width="0.3"><path d="
M 91.00 233.00 
C 90.52 232.49 90.41 231.47 90.00 231.00
C 88.81 230.03 87.15 229.10 86.00 228.00
C 87.63 229.56 89.19 231.46 91.00 233.00 Z"/>
</g>
<g fill="None" fill-opacity="0.0" stroke="#3587BB" stroke-opacity="0.28" stroke-width="0.3"><path d="
M 91.00 233.00 
C 97.14 238.25 103.75 244.23 110.25 248.75 C 116.75 253.27 123.98 262.70 132.00 260.00
C 123.16 261.19 115.81 251.29 109.08 246.92 C 102.35 242.54 96.36 236.22 90.00 231.00
C 90.41 231.47 90.52 232.49 91.00 233.00 Z"/>
</g>
<g fill="None" fill-opacity="0.0" stroke="#45A3E8" stroke-opacity="0.10" stroke-width="0.3"><path d="
M 165.00 236.00 
C 167.12 234.71 168.23 232.62 170.00 231.00
C 168.50 232.50 166.59 234.52 165.00 236.00 Z"/>
</g>
<g fill="None" fill-opacity="0.0" stroke="#4B95DC" stroke-opacity="0.16" stroke-width="0.3"><path d="
M 148.00 250.00 
C 153.32 245.93 158.10 241.57 163.00 237.00
C 158.10 239.98 151.29 245.29 148.00 250.00 Z"/>
</g>
<g fill="None" fill-opacity="0.0" stroke="#368DC3" stroke-opacity="0.25" stroke-width="0.3"><path d="
M 141.00 255.00 
C 143.29 253.57 145.48 252.34 147.00 250.00
C 144.71 251.43 142.52 252.66 141.00 255.00 Z"/>
</g>
<g fill="None" fill-opacity="0.0" stroke="#3991C8" stroke-opacity="0.24" stroke-width="0.3"><path d="
M 135.00 259.00 
C 137.20 257.97 138.63 257.10 140.00 255.00
C 138.19 256.12 136.62 257.97 135.00 259.00 Z"/>
</g>
<g fill="#000000" fill-opacity="0.00" stroke="None">
<path d="
M 0.00 270.00 
L 260.00 270.00
L 260.00 0.00
L 0.00 0.00
L 0.00 270.00
M 183.00 20.00 
C 190.16 20.39 197.03 22.03 203.00 26.00
C 202.09 29.13 197.99 31.80 195.00 33.00
C 193.28 34.41 191.79 36.59 190.00 38.00
C 188.49 39.19 187.00 40.97 185.00 41.00
C 196.33 45.00 210.65 44.74 222.00 51.00
C 223.94 53.79 218.27 55.60 216.00 57.00
C 213.96 58.26 211.97 58.95 210.00 60.00
C 208.27 61.18 206.94 62.83 205.00 64.00
C 203.62 64.83 202.28 65.30 201.00 66.00
C 199.96 66.71 199.06 68.35 198.00 69.00
C 198.13 76.56 203.85 83.64 204.00 92.00
C 204.22 93.82 204.95 96.54 205.00 99.00
C 205.11 104.33 205.00 109.67 205.00 115.00
C 205.00 117.00 205.07 119.01 205.00 121.00
C 204.93 122.94 204.23 124.70 204.00 126.00
C 204.00 127.00 204.03 128.00 204.00 129.00
C 203.98 129.67 204.81 136.22 205.00 136.00
C 207.47 135.97 208.28 135.10 211.00 136.00
C 213.32 136.77 214.67 137.83 216.00 140.00
C 222.11 149.97 216.01 166.91 211.00 176.00
C 208.65 180.26 203.08 182.58 201.00 186.00
C 200.45 187.13 200.26 189.66 200.00 191.00
C 198.59 198.28 197.91 203.40 193.00 209.00
C 192.23 209.87 191.67 211.11 191.00 212.00
C 189.49 214.00 187.82 215.43 186.00 217.00
C 181.76 220.66 177.57 225.55 173.00 229.00
C 172.11 229.67 170.77 230.29 170.00 231.00
C 168.23 232.62 167.12 234.71 165.00 236.00
C 164.36 236.39 163.61 236.63 163.00 237.00
C 158.10 241.57 153.32 245.93 148.00 250.00
C 147.68 250.24 147.00 250.00 147.00 250.00
C 145.48 252.34 143.29 253.57 141.00 255.00
C 140.64 255.22 140.00 255.00 140.00 255.00
C 138.63 257.10 137.20 257.97 135.00 259.00
C 133.90 259.51 133.12 259.62 132.00 260.00
C 123.98 262.70 116.75 253.27 110.25 248.75 C 103.75 244.23 97.14 238.25 91.00 233.00
C 89.19 231.46 87.63 229.56 86.00 228.00
C 84.85 226.90 83.19 225.97 82.00 225.00
C 75.65 219.79 66.51 212.33 63.00 205.00
C 59.75 198.20 60.63 189.63 56.00 184.00
C 54.08 182.00 51.27 180.60 50.00 178.00
C 49.80 177.60 50.00 177.00 50.00 177.00
C 47.81 175.63 47.88 174.16 47.00 172.00
C 45.48 168.26 44.59 165.04 44.00 161.00
C 43.36 158.48 42.21 156.09 42.00 153.00
C 41.69 148.39 41.62 143.89 44.00 140.00
C 45.28 137.91 46.63 136.46 49.00 136.00
C 49.48 135.91 50.00 136.00 50.00 136.00
C 51.58 134.65 53.78 134.99 56.00 135.00
C 56.24 134.67 56.00 134.00 56.00 134.00
C 56.00 132.33 56.00 130.67 56.00 129.00
C 56.00 128.50 56.00 127.50 56.00 127.00
C 55.08 124.83 55.05 122.73 55.00 120.00
C 54.95 117.34 55.00 114.66 55.00 112.00
C 55.00 104.94 54.98 97.31 56.00 91.00
C 56.26 86.21 57.36 82.39 59.00 78.00
C 59.56 76.51 60.38 75.24 61.00 74.00
C 62.29 70.40 63.89 67.27 66.00 64.00
C 70.05 57.73 76.09 51.66 82.00 47.00
C 84.95 44.67 87.96 42.77 91.00 41.00
C 94.57 38.40 97.76 35.91 102.00 34.00
C 103.10 33.50 103.86 33.36 105.00 33.00
C 107.56 31.79 110.18 30.11 113.00 29.00
C 121.45 25.68 129.84 21.99 139.00 21.00
C 137.82 25.60 134.89 29.61 133.00 34.00
C 133.28 33.75 134.00 34.00 134.00 34.00
C 135.83 33.10 137.41 31.18 139.00 30.00
C 141.60 28.07 144.06 27.06 147.00 26.00
C 148.98 25.02 150.70 23.77 153.00 23.00
C 157.58 21.47 162.02 20.27 167.00 20.00
C 172.17 19.16 177.89 19.17 183.00 20.00 Z"/>
</g>
<g fill="#3298C2" fill-opacity="0.27" stroke="None">
<path d="
M 167.00 20.00 
C 172.23 19.72 177.77 19.72 183.00 20.00
C 177.89 19.17 172.17 19.16 167.00 20.00 Z"/>
</g>
<g fill="#141B2E" fill-opacity="0.99" stroke="None">
<path d="
M 153.00 23.00 
C 151.07 23.89 149.21 25.21 147.00 26.00
C 144.06 27.06 141.60 28.07 139.00 30.00
C 136.85 31.88 134.96 36.17 132.00 37.00
C 129.74 38.91 132.82 34.36 133.00 34.00
C 134.89 29.61 137.82 25.60 139.00 21.00
C 129.84 21.99 121.45 25.68 113.00 29.00
C 110.38 30.40 108.03 32.03 105.00 33.00
C 103.86 33.36 103.10 33.50 102.00 34.00
C 98.50 36.28 94.80 38.79 91.00 41.00
C 87.96 42.77 84.95 44.67 82.00 47.00
C 76.53 52.05 70.52 58.45 66.00 64.00
C 63.89 67.27 62.29 70.40 61.00 74.00
C 60.45 75.54 59.65 76.73 59.00 78.00
C 57.36 82.39 56.26 86.21 56.00 91.00
C 55.62 97.95 56.00 105.04 56.00 112.00
C 56.00 114.67 56.00 117.33 56.00 120.00
C 56.00 122.33 56.00 124.67 56.00 127.00
C 56.00 127.50 56.00 128.50 56.00 129.00
C 56.37 130.22 57.24 131.15 57.00 133.00
C 72.54 108.69 104.60 117.09 130.00 116.00 C 155.40 114.91 185.84 111.58 203.00 133.00
C 202.95 131.25 203.81 130.07 204.00 129.00
C 204.03 128.00 204.00 127.00 204.00 126.00
C 204.00 124.33 204.00 122.67 204.00 121.00
C 204.00 119.00 204.00 117.00 204.00 115.00
C 204.00 109.67 204.00 104.33 204.00 99.00
C 204.00 96.67 204.04 94.33 204.00 92.00
C 203.85 83.64 198.13 76.56 198.00 69.00
C 197.97 67.30 198.75 67.22 201.00 66.00
C 202.28 65.30 203.62 64.83 205.00 64.00
C 206.66 62.75 208.01 61.06 210.00 60.00
C 211.97 58.95 213.96 58.26 216.00 57.00
C 218.09 55.39 221.13 53.30 222.00 51.00
C 210.65 44.74 196.33 45.00 185.00 41.00
C 187.00 40.97 188.49 39.19 190.00 38.00
C 191.75 36.38 193.00 34.40 195.00 33.00
C 197.99 31.80 202.09 29.13 203.00 26.00
C 197.03 22.03 190.16 20.39 183.00 20.00
C 177.77 19.72 172.23 19.72 167.00 20.00
C 162.02 20.27 157.58 21.47 153.00 23.00 Z"/>
</g>
<g fill="#3194BF" fill-opacity="0.28" stroke="None">
<path d="
M 147.00 26.00 
C 149.21 25.21 151.07 23.89 153.00 23.00
C 150.70 23.77 148.98 25.02 147.00 26.00 Z"/>
</g>
<g fill="#3181B3" fill-opacity="0.31" stroke="None">
<path d="
M 105.00 33.00 
C 108.03 32.03 110.38 30.40 113.00 29.00
C 110.18 30.11 107.56 31.79 105.00 33.00 Z"/>
</g>
<g fill="#29628B" fill-opacity="0.52" stroke="None">
<path d="
M 134.00 34.00 
C 133.30 34.76 132.73 36.39 132.00 37.00
C 134.96 36.17 136.85 31.88 139.00 30.00
C 137.41 31.18 135.83 33.10 134.00 34.00 Z"/>
</g>
<g fill="#34A0D2" fill-opacity="0.19" stroke="None">
<path d="
M 190.00 38.00 
C 191.79 36.59 193.28 34.41 195.00 33.00
C 193.00 34.40 191.75 36.38 190.00 38.00 Z"/>
</g>
<g fill="#3492C3" fill-opacity="0.25" stroke="None">
<path d="
M 91.00 41.00 
C 94.80 38.79 98.50 36.28 102.00 34.00
C 97.76 35.91 94.57 38.40 91.00 41.00 Z"/>
</g>
<g fill="#3693C8" fill-opacity="0.25" stroke="None">
<path d="
M 132.00 37.00 
C 132.73 36.39 133.30 34.76 134.00 34.00
C 134.00 34.00 133.28 33.75 133.00 34.00
C 132.82 34.36 129.74 38.91 132.00 37.00 Z"/>
</g>
<g fill="#3897CD" fill-opacity="0.21" stroke="None">
<path d="
M 66.00 64.00 
C 70.52 58.45 76.53 52.05 82.00 47.00
C 76.09 51.66 70.05 57.73 66.00 64.00 Z"/>
</g>
<g fill="#4192C8" fill-opacity="0.23" stroke="None">
<path d="
M 216.00 57.00 
C 218.27 55.60 223.94 53.79 222.00 51.00
C 221.13 53.30 218.09 55.39 216.00 57.00 Z"/>
</g>
<g fill="#3199C3" fill-opacity="0.25" stroke="None">
<path d="
M 205.00 64.00 
C 206.94 62.83 208.27 61.18 210.00 60.00
C 208.01 61.06 206.66 62.75 205.00 64.00 Z"/>
</g>
<g fill="#3283B4" fill-opacity="0.33" stroke="None">
<path d="
M 198.00 69.00 
C 199.06 68.35 199.96 66.71 201.00 66.00
C 198.75 67.22 197.97 67.30 198.00 69.00 Z"/>
</g>
<g fill="#4779BA" fill-opacity="0.30" stroke="None">
<path d="
M 59.00 78.00 
C 59.65 76.73 60.45 75.54 61.00 74.00
C 60.38 75.24 59.56 76.51 59.00 78.00 Z"/>
</g>
<g fill="#224D6D" fill-opacity="0.66" stroke="None">
<path d="
M 55.00 112.00 
C 55.00 111.96 56.00 112.00 56.00 112.00
C 56.00 105.04 55.62 97.95 56.00 91.00
C 54.98 97.31 55.00 104.94 55.00 112.00 Z"/>
</g>
<g fill="#2E74A3" fill-opacity="0.40" stroke="None">
<path d="
M 204.00 99.00 
C 204.01 99.07 205.00 99.00 205.00 99.00
C 204.95 96.54 204.22 93.82 204.00 92.00
C 204.04 94.33 204.00 96.67 204.00 99.00 Z"/>
</g>
<g fill="#1E3E5D" fill-opacity="0.75" stroke="None">
<path d="
M 204.00 115.00 
C 204.02 114.90 205.00 115.00 205.00 115.00
C 205.00 109.67 205.11 104.33 205.00 99.00
C 205.00 99.00 204.01 99.07 204.00 99.00
C 204.00 104.33 204.00 109.67 204.00 115.00 Z"/>
</g>
<g fill="#2A6691" fill-opacity="0.49" stroke="None">
<path d="
M 55.00 120.00 
C 55.00 120.04 56.00 120.00 56.00 120.00
C 56.00 117.33 56.00 114.67 56.00 112.00
C 56.00 112.00 55.00 111.96 55.00 112.00
C 55.00 114.66 54.95 117.34 55.00 120.00 Z"/>
</g>
<g fill="#2F76A5" fill-opacity="0.40" stroke="None">
<path d="
M 204.00 121.00 
C 204.05 120.85 205.00 121.00 205.00 121.00
C 205.07 119.01 205.00 117.00 205.00 115.00
C 205.00 115.00 204.02 114.90 204.00 115.00
C 204.00 117.00 204.00 119.00 204.00 121.00 Z"/>
</g>
<g fill="#020202" fill-opacity="1.00" stroke="None">
<path d="
M 57.00 133.00 
C 56.94 133.49 57.00 134.00 57.00 134.00
C 55.49 141.75 48.99 149.31 51.78 158.22 C 54.56 167.14 54.90 173.31 62.00 180.00
C 63.98 181.87 66.78 183.41 69.00 185.00
C 71.01 186.43 72.64 186.97 74.00 189.00
C 83.45 193.23 105.55 193.88 113.75 181.75 C 121.95 169.62 137.17 168.38 145.75 181.25 C 154.33 194.12 174.82 192.88 186.00 188.00
C 196.68 183.34 200.44 177.11 205.92 166.92 C 211.41 156.74 207.02 144.95 203.00 135.00
C 202.83 134.57 203.02 133.50 203.00 133.00
C 185.84 111.58 155.40 114.91 130.00 116.00 C 104.60 117.09 72.54 108.69 57.00 133.00
M 178.00 120.00 
C 189.12 121.99 198.71 131.47 202.78 142.22 C 206.84 152.98 204.55 168.63 195.25 177.25 C 185.95 185.87 172.39 189.59 159.78 185.22 C 147.16 180.85 143.69 168.34 130.00 168.00 C 116.31 167.66 112.36 181.83 99.78 185.78 C 87.19 189.72 73.08 185.36 64.25 176.75 C 55.43 168.13 52.09 151.96 57.32 141.32 C 62.56 130.68 69.67 120.99 83.07 120.07 C 96.48 119.16 115.59 119.29 130.00 120.00 C 144.41 120.71 163.56 117.41 178.00 120.00 Z"/>
</g>
<g fill="#3B97D1" fill-opacity="0.17" stroke="None">
<path d="
M 56.00 127.00 
C 56.00 124.67 56.00 122.33 56.00 120.00
C 56.00 120.00 55.00 120.04 55.00 120.00
C 55.05 122.73 55.08 124.83 56.00 127.00 Z"/>
</g>
<g fill="#FCFCFC" fill-opacity="1.00" stroke="None">
<path d="
M 178.00 120.00 
C 163.56 117.41 144.41 120.71 130.00 120.00 C 115.59 119.29 96.48 119.16 83.07 120.07 C 69.67 120.99 62.56 130.68 57.32 141.32 C 52.09 151.96 55.43 168.13 64.25 176.75 C 73.08 185.36 87.19 189.72 99.78 185.78 C 112.36 181.83 116.31 167.66 130.00 168.00 C 143.69 168.34 147.16 180.85 159.78 185.22 C 172.39 189.59 185.95 185.87 195.25 177.25 C 204.55 168.63 206.84 152.98 202.78 142.22 C 198.71 131.47 189.12 121.99 178.00 120.00
M 168.00 133.00 
C 176.08 134.77 172.90 149.24 164.33 146.67 C 155.75 144.10 159.31 131.10 168.00 133.00
M 93.00 149.00 
C 95.68 150.88 102.32 147.12 105.00 149.00
C 106.72 150.20 106.68 156.82 105.00 158.00
C 102.32 159.88 95.68 156.12 93.00 158.00
C 91.63 161.46 95.27 169.71 92.00 172.00
C 91.40 172.42 84.60 172.42 84.00 172.00
C 80.74 169.72 84.37 161.40 83.00 158.00
C 80.32 156.12 73.68 159.88 71.00 158.00
C 69.28 156.80 69.32 150.18 71.00 149.00
C 73.68 147.12 80.32 150.88 83.00 149.00
C 84.37 145.54 80.73 137.29 84.00 135.00
C 84.60 134.58 91.40 134.58 92.00 135.00
C 95.26 137.28 91.63 145.60 93.00 149.00
M 155.00 146.00 
C 163.08 147.77 159.90 162.24 151.33 159.67 C 142.75 157.10 146.31 144.10 155.00 146.00
M 181.00 146.00 
C 189.08 147.77 185.90 162.24 177.33 159.67 C 168.75 157.10 172.31 144.10 181.00 146.00
M 168.00 159.00 
C 176.33 160.82 172.84 174.79 164.00 172.00 C 155.16 169.21 160.05 157.26 168.00 159.00 Z"/>
</g>
<g fill="#3C9AD5" fill-opacity="0.15" stroke="None">
<path d="
M 204.00 126.00 
C 204.23 124.70 204.93 122.94 205.00 121.00
C 205.00 121.00 204.05 120.85 204.00 121.00
C 204.00 122.67 204.00 124.33 204.00 126.00 Z"/>
</g>
<g fill="#1D3856" fill-opacity="0.75" stroke="None">
<path d="
M 56.00 134.00 
C 56.25 133.75 57.00 134.00 57.00 134.00
C 57.00 134.00 56.94 133.49 57.00 133.00
C 57.24 131.15 56.37 130.22 56.00 129.00
C 56.00 130.67 56.00 132.33 56.00 134.00 Z"/>
</g>
<g fill="#204464" fill-opacity="0.68" stroke="None">
<path d="
M 203.00 133.00 
C 203.02 133.50 202.83 134.57 203.00 135.00
C 203.62 134.88 204.26 136.01 205.00 136.00
C 204.81 136.22 203.98 129.67 204.00 129.00
C 203.81 130.07 202.95 131.25 203.00 133.00 Z"/>
</g>
<g fill="#D8413E" fill-opacity="1.00" stroke="None">
<path d="
M 168.00 133.00 
C 159.31 131.10 155.75 144.10 164.33 146.67 C 172.90 149.24 176.08 134.77 168.00 133.00 Z"/>
</g>
<g fill="#151C2F" fill-opacity="0.98" stroke="None">
<path d="
M 56.00 135.00 
C 54.93 136.46 51.79 136.19 50.00 136.00
C 50.00 136.00 49.48 135.91 49.00 136.00
C 47.77 136.79 44.96 138.78 44.00 140.00
C 41.62 143.89 41.69 148.39 42.00 153.00
C 42.37 155.25 43.60 158.25 44.00 161.00
C 44.59 165.04 45.48 168.26 47.00 172.00
C 47.79 173.56 49.27 175.15 50.00 177.00
C 50.00 177.00 49.80 177.60 50.00 178.00
C 52.40 179.68 54.21 181.82 56.00 184.00
C 60.63 189.63 59.75 198.20 63.00 205.00
C 65.18 208.60 69.71 212.19 73.00 215.00
C 75.53 217.16 77.72 219.72 80.00 222.00
C 81.90 223.90 84.12 226.19 86.00 228.00
C 87.15 229.10 88.81 230.03 90.00 231.00
C 96.36 236.22 102.35 242.54 109.08 246.92 C 115.81 251.29 123.16 261.19 132.00 260.00
C 133.12 259.62 133.90 259.51 135.00 259.00
C 136.62 257.97 138.19 256.12 140.00 255.00
C 140.00 255.00 140.64 255.22 141.00 255.00
C 142.52 252.66 144.71 251.43 147.00 250.00
C 147.00 250.00 147.68 250.24 148.00 250.00
C 151.29 245.29 158.10 239.98 163.00 237.00
C 163.61 236.63 164.36 236.39 165.00 236.00
C 166.59 234.52 168.50 232.50 170.00 231.00
C 171.67 229.33 173.22 227.52 175.00 226.00
C 178.09 223.36 181.40 218.76 185.00 217.00
C 187.48 214.52 190.76 211.57 193.00 209.00
C 197.18 204.20 198.29 196.50 200.00 191.00
C 200.26 189.66 200.45 187.13 201.00 186.00
C 202.69 182.49 208.69 179.33 211.00 176.00
C 216.01 166.91 222.11 149.97 216.00 140.00
C 215.13 138.89 212.06 136.47 211.00 136.00
C 208.28 135.10 207.47 135.97 205.00 136.00
C 204.26 136.01 203.62 134.88 203.00 135.00
C 207.02 144.95 211.41 156.74 205.92 166.92 C 200.44 177.11 196.68 183.34 186.00 188.00
C 176.61 198.56 167.46 210.51 151.99 203.01 C 136.52 195.51 123.95 196.34 108.78 202.78 C 93.60 209.21 82.39 201.48 74.00 189.00
C 72.64 186.97 71.01 186.43 69.00 185.00
C 71.59 189.75 70.88 196.25 76.75 199.25 C 82.62 202.24 83.78 207.09 90.08 208.92 C 96.37 210.76 101.52 208.23 107.67 206.67 C 113.82 205.11 119.98 204.06 126.00 202.00
C 126.00 219.33 126.00 236.67 126.00 254.00
C 111.70 244.96 100.50 234.80 87.25 223.75 C 73.99 212.70 60.69 198.11 62.00 180.00
C 54.90 173.31 54.56 167.14 51.78 158.22 C 48.99 149.31 55.49 141.75 57.00 134.00
C 57.00 134.00 56.25 133.75 56.00 134.00
C 56.00 134.00 56.24 134.67 56.00 135.00 Z"/>
</g>
<g fill="#39ADDE" fill-opacity="0.12" stroke="None">
<path d="
M 50.00 136.00 
C 51.79 136.19 54.93 136.46 56.00 135.00
C 53.78 134.99 51.58 134.65 50.00 136.00 Z"/>
</g>
<g fill="#EB9D9D" fill-opacity="1.00" stroke="None">
<path d="
M 83.00 149.00 
C 86.26 146.72 82.63 138.40 84.00 135.00
C 80.73 137.29 84.37 145.54 83.00 149.00 Z"/>
</g>
<g fill="#D42D2C" fill-opacity="1.00" stroke="None">
<path d="
M 83.00 149.00 
C 80.32 150.88 73.68 147.12 71.00 149.00
C 71.00 152.00 71.00 155.00 71.00 158.00
C 73.68 159.88 80.32 156.12 83.00 158.00
C 86.26 160.28 82.63 168.60 84.00 172.00
C 84.60 172.42 91.40 172.42 92.00 172.00
C 93.37 168.54 89.73 160.29 93.00 158.00
C 95.68 156.12 102.32 159.88 105.00 158.00
C 105.00 155.00 105.00 152.00 105.00 149.00
C 102.32 147.12 95.68 150.88 93.00 149.00
C 89.74 146.72 93.37 138.40 92.00 135.00
C 91.40 134.58 84.60 134.58 84.00 135.00
C 82.63 138.40 86.26 146.72 83.00 149.00 Z"/>
</g>
<g fill="#E78C8C" fill-opacity="1.00" stroke="None">
<path d="
M 93.00 149.00 
C 91.63 145.60 95.26 137.28 92.00 135.00
C 93.37 138.40 89.74 146.72 93.00 149.00 Z"/>
</g>
<g fill="#348ABD" fill-opacity="0.26" stroke="None">
<path d="
M 44.00 140.00 
C 44.96 138.78 47.77 136.79 49.00 136.00
C 46.63 136.46 45.28 137.91 44.00 140.00 Z"/>
</g>
<g fill="#3381B1" fill-opacity="0.33" stroke="None">
<path d="
M 216.00 140.00 
C 214.67 137.83 213.32 136.77 211.00 136.00
C 212.06 136.47 215.13 138.89 216.00 140.00 Z"/>
</g>
<g fill="#D8423E" fill-opacity="1.00" stroke="None">
<path d="
M 155.00 146.00 
C 146.31 144.10 142.75 157.10 151.33 159.67 C 159.90 162.24 163.08 147.77 155.00 146.00 Z"/>
</g>
<g fill="#D8423E" fill-opacity="1.00" stroke="None">
<path d="
M 181.00 146.00 
C 172.31 144.10 168.75 157.10 177.33 159.67 C 185.90 162.24 189.08 147.77 181.00 146.00 Z"/>
</g>
<g fill="#E78C8C" fill-opacity="1.00" stroke="None">
<path d="
M 71.00 158.00 
C 71.00 155.00 71.00 152.00 71.00 149.00
C 69.32 150.18 69.28 156.80 71.00 158.00 Z"/>
</g>
<g fill="#E88C8C" fill-opacity="1.00" stroke="None">
<path d="
M 105.00 158.00 
C 106.68 156.82 106.72 150.20 105.00 149.00
C 105.00 152.00 105.00 155.00 105.00 158.00 Z"/>
</g>
<g fill="#2F74A3" fill-opacity="0.40" stroke="None">
<path d="
M 44.00 161.00 
C 43.60 158.25 42.37 155.25 42.00 153.00
C 42.21 156.09 43.36 158.48 44.00 161.00 Z"/>
</g>
<g fill="#EB9D9D" fill-opacity="1.00" stroke="None">
<path d="
M 84.00 172.00 
C 82.63 168.60 86.26 160.28 83.00 158.00
C 84.37 161.40 80.74 169.72 84.00 172.00 Z"/>
</g>
<g fill="#E78C8C" fill-opacity="1.00" stroke="None">
<path d="
M 92.00 172.00 
C 95.27 169.71 91.63 161.46 93.00 158.00
C 89.73 160.29 93.37 168.54 92.00 172.00 Z"/>
</g>
<g fill="#D73E3B" fill-opacity="1.00" stroke="None">
<path d="
M 168.00 159.00 
C 160.05 157.26 155.16 169.21 164.00 172.00 C 172.84 174.79 176.33 160.82 168.00 159.00 Z"/>
</g>
<g fill="#F4CE92" fill-opacity="1.00" stroke="None">
<path d="
M 74.00 189.00 
C 82.39 201.48 93.60 209.21 108.78 202.78 C 123.95 196.34 136.52 195.51 151.99 203.01 C 167.46 210.51 176.61 198.56 186.00 188.00
C 174.82 192.88 154.33 194.12 145.75 181.25 C 137.17 168.38 121.95 169.62 113.75 181.75 C 105.55 193.88 83.45 193.23 74.00 189.00 Z"/>
</g>
<g fill="#3A96CC" fill-opacity="0.20" stroke="None">
<path d="
M 50.00 177.00 
C 49.27 175.15 47.79 173.56 47.00 172.00
C 47.88 174.16 47.81 175.63 50.00 177.00 Z"/>
</g>
<g fill="#418CCA" fill-opacity="0.22" stroke="None">
<path d="
M 201.00 186.00 
C 203.08 182.58 208.65 180.26 211.00 176.00
C 208.69 179.33 202.69 182.49 201.00 186.00 Z"/>
</g>
<g fill="#3790C7" fill-opacity="0.22" stroke="None">
<path d="
M 56.00 184.00 
C 54.21 181.82 52.40 179.68 50.00 178.00
C 51.27 180.60 54.08 182.00 56.00 184.00 Z"/>
</g>
<g fill="#535762" fill-opacity="1.00" stroke="None">
<path d="
M 69.00 185.00 
C 66.78 183.41 63.98 181.87 62.00 180.00
C 60.69 198.11 73.99 212.70 87.25 223.75 C 100.50 234.80 111.70 244.96 126.00 254.00
C 126.00 236.67 126.00 219.33 126.00 202.00
C 119.98 204.06 113.82 205.11 107.67 206.67 C 101.52 208.23 96.37 210.76 90.08 208.92 C 83.78 207.09 82.62 202.24 76.75 199.25 C 70.88 196.25 71.59 189.75 69.00 185.00 Z"/>
</g>
<g fill="#338AB8" fill-opacity="0.29" stroke="None">
<path d="
M 193.00 209.00 
C 197.91 203.40 198.59 198.28 200.00 191.00
C 198.29 196.50 197.18 204.20 193.00 209.00 Z"/>
</g>
<g fill="#3DA1DD" fill-opacity="0.12" stroke="None">
<path d="
M 82.00 225.00 
C 81.23 224.18 80.72 222.78 80.00 222.00
C 77.92 219.73 75.15 217.15 73.00 215.00
C 69.71 212.19 65.18 208.60 63.00 205.00
C 66.51 212.33 75.65 219.79 82.00 225.00 Z"/>
</g>
<g fill="#265C84" fill-opacity="0.56" stroke="None">
<path d="
M 185.00 217.00 
C 185.40 216.80 186.00 217.00 186.00 217.00
C 187.42 214.97 189.45 213.69 191.00 212.00
C 191.67 211.11 192.23 209.87 193.00 209.00
C 190.76 211.57 187.48 214.52 185.00 217.00 Z"/>
</g>
<g fill="#55AAFF" fill-opacity="0.01" stroke="None">
<path d="
M 186.00 217.00 
C 187.82 215.43 189.49 214.00 191.00 212.00
C 189.45 213.69 187.42 214.97 186.00 217.00 Z"/>
</g>
<g fill="#1A304A" fill-opacity="0.83" stroke="None">
<path d="
M 80.00 222.00 
C 77.72 219.72 75.53 217.16 73.00 215.00
C 75.15 217.15 77.92 219.73 80.00 222.00 Z"/>
</g>
<g fill="#4493D4" fill-opacity="0.18" stroke="None">
<path d="
M 175.00 226.00 
C 174.26 226.81 173.73 228.27 173.00 229.00
C 177.57 225.55 181.76 220.66 186.00 217.00
C 186.00 217.00 185.40 216.80 185.00 217.00
C 181.40 218.76 178.09 223.36 175.00 226.00 Z"/>
</g>
<g fill="#2B6994" fill-opacity="0.48" stroke="None">
<path d="
M 82.00 225.00 
C 83.19 225.97 84.85 226.90 86.00 228.00
C 84.12 226.19 81.90 223.90 80.00 222.00
C 80.72 222.78 81.23 224.18 82.00 225.00 Z"/>
</g>
<g fill="#26587F" fill-opacity="0.57" stroke="None">
<path d="
M 170.00 231.00 
C 170.77 230.29 172.11 229.67 173.00 229.00
C 173.73 228.27 174.26 226.81 175.00 226.00
C 173.22 227.52 171.67 229.33 170.00 231.00 Z"/>
</g>
<g fill="#3FA3E0" fill-opacity="0.09" stroke="None">
<path d="
M 91.00 233.00 
C 90.52 232.49 90.41 231.47 90.00 231.00
C 88.81 230.03 87.15 229.10 86.00 228.00
C 87.63 229.56 89.19 231.46 91.00 233.00 Z"/>
</g>
<g fill="#3587BB" fill-opacity="0.28" stroke="None">
<path d="
M 91.00 233.00 
C 97.14 238.25 103.75 244.23 110.25 248.75 C 116.75 253.27 123.98 262.70 132.00 260.00
C 123.16 261.19 115.81 251.29 109.08 246.92 C 102.35 242.54 96.36 236.22 90.00 231.00
C 90.41 231.47 90.52 232.49 91.00 233.00 Z"/>
</g>
<g fill="#45A3E8" fill-opacity="0.10" stroke="None">
<path d="
M 165.00 236.00 
C 167.12 234.71 168.23 232.62 170.00 231.00
C 168.50 232.50 166.59 234.52 165.00 236.00 Z"/>
</g>
<g fill="#4B95DC" fill-opacity="0.16" stroke="None">
<path d="
M 148.00 250.00 
C 153.32 245.93 158.10 241.57 163.00 237.00
C 158.10 239.98 151.29 245.29 148.00 250.00 Z"/>
</g>
<g fill="#368DC3" fill-opacity="0.25" stroke="None">
<path d="
M 141.00 255.00 
C 143.29 253.57 145.48 252.34 147.00 250.00
C 144.71 251.43 142.52 252.66 141.00 255.00 Z"/>
</g>
<g fill="#3991C8" fill-opacity="0.24" stroke="None">
<path d="
M 135.00 259.00 
C 137.20 257.97 138.63 257.10 140.00 255.00
C 138.19 256.12 136.62 257.97 135.00 259.00 Z"/>
</g>
</svg>