<svg xmlns="http://www.w3.org/2000/svg" viewBox="0 0 512 512" style="enable-background:new 0 0 512 512" xml:space="preserve"><style>.st1,.st7,.st8{fill:none;stroke:#000;stroke-width:20;stroke-linecap:round;stroke-linejoin:round;stroke-miterlimit:10}.st7,.st8{fill:#f2df98}.st8{fill:#fff}</style><g id="ICON_1_"><path d="M50.3 85.3H30.6c-11 0-19.9 8.9-19.9 19.9v317.7c0 28.4 23 51.5 51.4 51.5h147.6C218.6 490.8 236 502 256 502s37.4-11.2 46.3-27.6h147.6c28.4 0 51.4-23 51.4-51.5V105.2c0-11-8.9-19.9-19.9-19.9h-19.8" style="fill:#7585f0"/><path class="st1" d="M50.3 85.3H30.6c-11 0-19.9 8.9-19.9 19.9v317.7c0 28.4 23 51.5 51.4 51.5h147.6C218.6 490.8 236 502 256 502s37.4-11.2 46.3-27.6h98.4"/><path d="M461.4 383.2v-306c.1-11.1-8.8-20.1-19.9-20.1H295c-11.6 0-22.3 6.4-27.9 16.6-1.7 3.2-5.6 6.7-11.2 6.7v302.9h140.6" style="fill:#d4f4ff"/><path class="st1" d="M256 383.2h140.6M418.9 57H295c-11.6 0-22.3 6.4-27.9 16.6v0c-1.7 3.2-5.6 6.7-11.2 6.7"/><path class="st7" d="M50.6 383.2v15.5c0 18.8 15.2 34 34 34h149l11.3 20.9c1.7 3.2 5.6 6.7 11.2 6.7v-77.1"/><path d="M123.4 383.2H256V80.4c-5.6 0-9.4-3.5-11.2-6.7C239.3 63.4 228.6 57 217 57H70.4c-11.1 0-20 9-19.9 20.1V383.2" style="fill:#fff"/><path class="st1" d="M123.4 383.2H256M256 314.3V80.4c-5.6 0-9.4-3.5-11.2-6.7h0C239.3 63.4 228.6 57 217 57H70.4c-11.1 0-20 9-19.9 20.1V383.2M200 324.6h-93.7M200 280.6h-60M200 236.6h-93.7"/><path transform="rotate(-180 153.153 160.916)" style="fill:#e8c673;stroke:#000;stroke-width:20;stroke-linecap:round;stroke-linejoin:round;stroke-miterlimit:10" d="M106.3 131.9H200V190h-93.7z"/><path class="st1" d="M311.9 131.9h44.8M311.9 175.9h84.7M311.9 324.6h84.7M311.9 219.9h44.8M311.9 281.9h44.8"/><g><path class="st8" d="M501.3 114.8h0c0-17.8-5.2-35.3-14.9-50.2l-3.3-5h-64.3l-3.3 5c-9.7 15-14.9 32.4-14.9 50.2v0"/><path d="M451 122.9c-6.7-8.9-17.4-14.7-29.4-14.7-7.8 0-15 2.4-20.9 6.6v268.6H451" style="fill:#e4b75c"/><path class="st1" d="M400.7 383.4H451M451 122.9c-6.7-8.9-17.4-14.7-29.4-14.7-7.8 0-15 2.4-20.9 6.6v219"/><path class="st7" d="M451 172.1v211.3h50.3V114.8c-5.9-4.1-13.2-6.6-20.9-6.6-12 0-22.7 5.8-29.4 14.7"/><path style="fill:#7585f0;stroke:#000;stroke-width:20;stroke-linecap:round;stroke-linejoin:round;stroke-miterlimit:10" d="M418.9 59.5h64.3L451 10z"/><g><path d="M400.7 464.5c0 15.8 12.8 28.5 28.5 28.5h43.6c15.8 0 28.5-12.8 28.5-28.5v-34.6H400.7v34.6z" style="fill:#de5a5a;stroke:#000;stroke-width:20;stroke-linecap:round;stroke-linejoin:round;stroke-miterlimit:10"/><path class="st8" d="M400.7 383.4h100.6v46.5H400.7z"/><path class="st7" d="m400.7 383.4-144.7-.2v77.1c5.6 0 9.4-3.5 11.2-6.7l11.3-20.9h122.2v-49.3z"/></g></g></g></svg>