<svg xmlns="http://www.w3.org/2000/svg" width="512" height="512" xml:space="preserve"><path fill="#656D78" d="M228.019 355.385h55.961v-57.321h23.984c85.066-5.121 141.824-22.062 172.523-34.055l19.908-8.623V451.32c0 17.589-14.396 31.978-31.979 31.978H44.707c-17.59 0-31.979-14.389-31.979-31.978V256.679l6.796 2.374c26.221 11.594 86.738 33.094 184.511 39.012h23.984v57.32z"/><path fill="#656D78" d="M283.98 275.439h-55.961v22.625h-23.984c-97.773-5.918-158.291-27.418-184.511-39.012-10.313-4.56-15.353-7.597-15.353-7.597V139.532c0-21.985 17.987-39.973 39.973-39.973h423.711c21.984 0 39.973 17.987 39.973 39.973v111.924s-8.947 5.438-27.34 12.554c-30.699 11.992-87.457 28.934-172.523 34.055H283.98v-22.626z"/><g opacity=".2"><path d="M283.98 314.054h23.984c85.066-5.121 141.824-22.062 172.523-34.055 8.799-3.403 15.379-6.401 19.908-8.635v-15.978l-.125.055c-4.529 2.218-11.055 5.191-19.783 8.568-30.699 11.992-87.457 28.934-172.523 34.055H283.98v15.99zM12.728 271.911c1.932.929 4.196 1.982 6.796 3.13 26.221 11.594 86.738 33.096 184.511 39.013h23.984v-15.99h-23.984c-97.773-5.918-158.291-27.418-184.511-39.012l-6.796-2.374v15.233z"/></g><g opacity=".3"><path fill="#FFF" d="M28.717 259.451v-6.223l-8.557-5.223V136.082c0-21.985 17.987-39.973 39.973-39.973H44.144c-21.985 0-39.973 17.988-39.973 39.973v111.924s5.04 3.037 15.353 7.596a299.178 299.178 0 0 0 9.193 3.849zM28.717 447.869v-172.43a292.244 292.244 0 0 1-9.193-3.849 227.831 227.831 0 0 1-6.796-3.131v179.409c0 17.59 14.389 31.979 31.979 31.979h15.989c-17.59.001-31.979-14.388-31.979-31.978z"/></g><g opacity=".2"><path d="M485.281 259.451v-6.223l8.557-5.223V136.082c0-21.985-17.988-39.973-39.973-39.973h15.988c21.986 0 39.973 17.988 39.973 39.973v111.924s-5.043 3.037-15.348 7.596c-2.677 1.182-5.808 2.486-9.197 3.849zM485.281 447.869v-172.43a301.01 301.01 0 0 0 9.197-3.849 241.917 241.917 0 0 0 6.791-3.131v179.409c0 17.59-14.389 31.979-31.977 31.979h-15.99c17.591.001 31.979-14.388 31.979-31.978z"/></g><path fill="#ED5564" d="M331.932 67.581H180.04V51.592s15.544-15.989 75.948-15.989c60.409 0 75.944 15.989 75.944 15.989v15.989z"/><path fill="#FFF" d="M255.988 32.152c-60.404 0-75.948 15.989-75.948 15.989v7.994s15.544-15.989 75.948-15.989c60.409 0 75.944 15.989 75.944 15.989v-7.994c0 .001-15.536-15.989-75.944-15.989z" opacity=".3"/><path fill="#3A3847" d="M454.451 467.855h-15.99a3.994 3.994 0 0 1-3.996-3.997 3.994 3.994 0 0 1 3.996-3.997h15.99a3.994 3.994 0 0 1 3.996 3.997 3.994 3.994 0 0 1-3.996 3.997zm-31.978 0h-15.988a3.995 3.995 0 0 1-3.998-3.997 3.994 3.994 0 0 1 3.998-3.997h15.988a3.995 3.995 0 0 1 3.998 3.997 3.996 3.996 0 0 1-3.998 3.997zm-31.979 0h-15.988a3.995 3.995 0 0 1-3.998-3.997 3.994 3.994 0 0 1 3.998-3.997h15.988a3.995 3.995 0 0 1 3.998 3.997 3.996 3.996 0 0 1-3.998 3.997zm-31.978 0h-15.988a3.996 3.996 0 0 1-3.998-3.997 3.995 3.995 0 0 1 3.998-3.997h15.988a3.995 3.995 0 0 1 3.998 3.997 3.996 3.996 0 0 1-3.998 3.997zm-31.979 0h-15.988a3.996 3.996 0 0 1-3.998-3.997 3.995 3.995 0 0 1 3.998-3.997h15.988a3.994 3.994 0 0 1 3.998 3.997 3.995 3.995 0 0 1-3.998 3.997zm-31.976 0h-15.99a3.996 3.996 0 0 1-3.998-3.997 3.995 3.995 0 0 1 3.998-3.997h15.99a3.994 3.994 0 0 1 3.996 3.997 3.994 3.994 0 0 1-3.996 3.997zm-31.979 0h-15.99a3.995 3.995 0 0 1-3.997-3.997 3.994 3.994 0 0 1 3.997-3.997h15.99a3.994 3.994 0 0 1 3.996 3.997 3.994 3.994 0 0 1-3.996 3.997zm-31.979 0h-15.989a3.995 3.995 0 0 1-3.997-3.997 3.994 3.994 0 0 1 3.997-3.997h15.989a3.994 3.994 0 0 1 3.997 3.997 3.995 3.995 0 0 1-3.997 3.997zm-31.978 0h-15.989a3.996 3.996 0 0 1-3.998-3.997 3.995 3.995 0 0 1 3.998-3.997h15.989a3.997 3.997 0 1 1 0 7.994zm-31.979 0h-15.989a3.995 3.995 0 0 1-3.998-3.997 3.995 3.995 0 0 1 3.998-3.997h15.989a3.995 3.995 0 0 1 3.998 3.997 3.995 3.995 0 0 1-3.998 3.997zm-31.978 0h-15.989a3.995 3.995 0 0 1-3.997-3.997 3.994 3.994 0 0 1 3.997-3.997h15.989a3.994 3.994 0 0 1 3.997 3.997 3.994 3.994 0 0 1-3.997 3.997zm-31.978 0H86.701a3.995 3.995 0 0 1-3.997-3.997 3.994 3.994 0 0 1 3.997-3.997h15.989a3.995 3.995 0 0 1 3.998 3.997 3.995 3.995 0 0 1-3.998 3.997zm-31.978 0H54.723a3.995 3.995 0 0 1-3.998-3.997 3.995 3.995 0 0 1 3.998-3.997h15.989a3.997 3.997 0 1 1 0 7.994zm399.438-2.076a4 4 0 0 1-3.652-2.366 3.999 3.999 0 0 1 2.014-5.285 20.308 20.308 0 0 0 9.557-8.955 4.002 4.002 0 0 1 5.402-1.663 4.002 4.002 0 0 1 1.662 5.41 28.268 28.268 0 0 1-13.357 12.5 3.902 3.902 0 0 1-1.626.359zm-430.632-1.874a4.005 4.005 0 0 1-2.197-.664 28.25 28.25 0 0 1-11.18-14.497 3.992 3.992 0 0 1 2.518-5.06c2.088-.687 4.356.43 5.062 2.514 1.417 4.216 4.259 7.901 8.003 10.368a4.006 4.006 0 0 1 1.136 5.543 4.016 4.016 0 0 1-3.342 1.796zm444.857-24.389a4.004 4.004 0 0 1-3.996-3.997V419.53a3.994 3.994 0 0 1 3.996-3.998 3.985 3.985 0 0 1 3.998 3.998v15.989a3.995 3.995 0 0 1-3.998 3.997zM28.69 435.619a3.995 3.995 0 0 1-3.998-3.997v-15.989a3.995 3.995 0 0 1 3.998-3.997 3.995 3.995 0 0 1 3.997 3.997v15.989a3.994 3.994 0 0 1-3.997 3.997zm455.685-28.082a4.004 4.004 0 0 1-3.996-3.997v-15.989a3.994 3.994 0 0 1 3.996-3.997 3.984 3.984 0 0 1 3.998 3.997v15.989a3.994 3.994 0 0 1-3.998 3.997zM28.69 403.642a3.995 3.995 0 0 1-3.998-3.997v-15.989a3.995 3.995 0 0 1 3.998-3.997 3.994 3.994 0 0 1 3.997 3.997v15.989a3.995 3.995 0 0 1-3.997 3.997zm455.685-28.083a4.004 4.004 0 0 1-3.996-3.997v-15.989a3.994 3.994 0 0 1 3.996-3.997 3.984 3.984 0 0 1 3.998 3.997v15.989a3.994 3.994 0 0 1-3.998 3.997zM28.69 371.663a3.995 3.995 0 0 1-3.998-3.997v-15.989a3.995 3.995 0 0 1 3.998-3.997 3.995 3.995 0 0 1 3.997 3.997v15.989a3.995 3.995 0 0 1-3.997 3.997zm455.685-28.082a4.004 4.004 0 0 1-3.996-3.997v-15.989a3.994 3.994 0 0 1 3.996-3.997 3.984 3.984 0 0 1 3.998 3.997v15.989a3.995 3.995 0 0 1-3.998 3.997zM28.69 339.686a3.995 3.995 0 0 1-3.998-3.998V319.7a3.995 3.995 0 0 1 3.998-3.998 3.995 3.995 0 0 1 3.997 3.998v15.988a3.996 3.996 0 0 1-3.997 3.998zm455.685-28.083a4.004 4.004 0 0 1-3.996-3.997v-15.989a3.994 3.994 0 0 1 3.996-3.997 3.984 3.984 0 0 1 3.998 3.997v15.989a3.995 3.995 0 0 1-3.998 3.997zM28.69 307.707a3.995 3.995 0 0 1-3.998-3.998v-15.988a3.995 3.995 0 0 1 3.998-3.998 3.995 3.995 0 0 1 3.997 3.998v15.988a3.995 3.995 0 0 1-3.997 3.998zM20.149 236.014a3.995 3.995 0 0 1-3.998-3.998v-7.995a3.995 3.995 0 0 1 3.998-3.997 3.995 3.995 0 0 1 3.997 3.997v7.995a3.995 3.995 0 0 1-3.997 3.998zM20.149 210.429a3.995 3.995 0 0 1-3.998-3.998v-17.589a3.995 3.995 0 0 1 3.998-3.998 3.995 3.995 0 0 1 3.997 3.998v17.589a3.995 3.995 0 0 1-3.997 3.998zm0-35.175a3.995 3.995 0 0 1-3.998-3.997v-17.59a3.995 3.995 0 0 1 3.998-3.997 3.995 3.995 0 0 1 3.997 3.997v17.59a3.995 3.995 0 0 1-3.997 3.997zM20.149 140.079a3.995 3.995 0 0 1-3.998-3.998v-7.995a3.995 3.995 0 0 1 3.998-3.997 3.995 3.995 0 0 1 3.997 3.997v7.995a3.995 3.995 0 0 1-3.997 3.998zM491.824 236.014a4.001 4.001 0 0 1-3.998-3.998v-15.989a4.001 4.001 0 0 1 3.998-3.998 3.99 3.99 0 0 1 3.996 3.998v15.989a3.99 3.99 0 0 1-3.996 3.998zm0-31.979a4.001 4.001 0 0 1-3.998-3.997v-15.989a4.001 4.001 0 0 1 3.998-3.997 3.99 3.99 0 0 1 3.996 3.997v15.989a3.99 3.99 0 0 1-3.996 3.997zm0-31.978a4.001 4.001 0 0 1-3.998-3.997v-15.99a4.001 4.001 0 0 1 3.998-3.997 3.99 3.99 0 0 1 3.996 3.997v15.989a3.99 3.99 0 0 1-3.996 3.998zm0-31.978a4.001 4.001 0 0 1-3.998-3.998v-7.995a4.001 4.001 0 0 1 3.998-3.997 3.99 3.99 0 0 1 3.996 3.997v7.995a3.99 3.99 0 0 1-3.996 3.998zM275.971 451.866a4.001 4.001 0 0 1-3.998-3.997V431.88a4.001 4.001 0 0 1 3.998-3.997 3.99 3.99 0 0 1 3.998 3.997v15.989a3.99 3.99 0 0 1-3.998 3.997zm0-31.977a4.001 4.001 0 0 1-3.998-3.998v-15.988a4.001 4.001 0 0 1 3.998-3.998 3.991 3.991 0 0 1 3.998 3.998v15.988a3.991 3.991 0 0 1-3.998 3.998zm0-31.979a4.001 4.001 0 0 1-3.998-3.998v-15.988a4.001 4.001 0 0 1 3.998-3.998 3.991 3.991 0 0 1 3.998 3.998v15.988a3.991 3.991 0 0 1-3.998 3.998zM236.001 451.866a3.995 3.995 0 0 1-3.997-3.997V431.88a3.995 3.995 0 0 1 3.997-3.997 3.995 3.995 0 0 1 3.998 3.997v15.989a3.995 3.995 0 0 1-3.998 3.997zm0-31.977a3.995 3.995 0 0 1-3.997-3.998v-15.988a3.995 3.995 0 0 1 3.997-3.998 3.995 3.995 0 0 1 3.998 3.998v15.988a3.995 3.995 0 0 1-3.998 3.998zm0-31.979a3.995 3.995 0 0 1-3.997-3.998v-15.988a3.995 3.995 0 0 1 3.997-3.998 3.995 3.995 0 0 1 3.998 3.998v15.988a3.995 3.995 0 0 1-3.998 3.998z"/><path fill="#656D78" d="M256 311.962c4.399 0 7.995 3.599 7.995 7.994s-3.596 7.995-7.995 7.995c-4.395 0-7.994-3.6-7.994-7.995s3.598-7.994 7.994-7.994z"/><path fill="#FFCE54" d="M228.019 271.989h55.961v24.14h-55.961v-1.515zM283.98 351.935h-55.961v-55.806h55.961v55.806zM256 327.951c4.399 0 7.995-3.6 7.995-7.995s-3.596-7.994-7.995-7.994c-4.395 0-7.994 3.599-7.994 7.994s3.598 7.995 7.994 7.995z"/><path fill="#ED5564" d="M256 232.016c-15.454 0-27.98 12.527-27.98 27.981v11.992h55.961v-11.992c-.001-15.454-12.522-27.981-27.981-27.981z"/><path fill="#FFF" d="M259.998 232.418c-1.316-.187-2.629-.402-3.999-.402-15.454 0-27.98 12.527-27.98 27.981v11.992h7.994v-11.992c0-14.084 10.439-25.623 23.985-27.579z" opacity=".2"/><g opacity=".2"><path d="M252.002 232.418c1.315-.187 2.627-.402 3.997-.402 15.459 0 27.981 12.527 27.981 27.981v11.992h-7.994v-11.992c0-14.084-10.437-25.623-23.984-27.579z"/></g><g opacity=".2"><path d="M275.971 271.989h7.986v24.14h-7.986z"/></g><g opacity=".2"><path d="M275.971 296.129h7.986v55.962h-7.986z"/></g><g><path fill="#3A3847" d="M468.418 483.845H44.707c-19.838 0-35.976-16.138-35.976-35.976v-175.88c0-2.21 1.788-3.997 3.997-3.997s3.997 1.787 3.997 3.997v175.88c0 15.427 12.554 27.98 27.981 27.98h423.711c15.428 0 27.98-12.554 27.98-27.98v-175.88c0-2.21 1.789-3.997 3.998-3.997s3.996 1.787 3.996 3.997v175.88c.002 19.838-16.135 35.976-35.973 35.976z"/><path fill="#3A3847" d="M283.98 355.932h-55.961a3.995 3.995 0 0 1-3.998-3.997V271.99a3.995 3.995 0 0 1 3.998-3.997h55.961a3.995 3.995 0 0 1 3.998 3.997v79.945a3.995 3.995 0 0 1-3.998 3.997zm-51.964-7.994h47.968v-71.951h-47.968v71.951z"/><path fill="#3A3847" d="M256 331.948c-6.612 0-11.991-5.38-11.991-11.992s5.379-11.991 11.991-11.991c6.614 0 11.993 5.379 11.993 11.991s-5.38 11.992-11.993 11.992zm0-15.989a4.003 4.003 0 0 0-3.997 3.997 4.002 4.002 0 0 0 3.997 3.997 4.003 4.003 0 0 0 3.999-3.997 4.005 4.005 0 0 0-3.999-3.997z"/><path fill="#3A3847" d="M256 339.942a3.995 3.995 0 0 1-3.997-3.997v-7.994a3.995 3.995 0 0 1 3.997-3.998 3.997 3.997 0 0 1 3.999 3.998v7.994a3.997 3.997 0 0 1-3.999 3.997zM283.98 300.126h-55.961a3.99 3.99 0 0 1-3.998-3.997 4 4 0 0 1 3.998-3.998h55.961a4.001 4.001 0 0 1 3.998 3.998 3.99 3.99 0 0 1-3.998 3.997z"/><path fill="#3A3847" d="M204.039 298.611c-.082 0-.164 0-.246-.008-97.656-5.91-158.381-27.192-185.886-39.344-10.422-4.61-15.587-7.702-15.802-7.831a3.998 3.998 0 0 1-1.932-3.423V136.082c0-24.246 19.725-43.97 43.97-43.97h423.711c24.25 0 43.971 19.725 43.971 43.97v111.924a4.01 4.01 0 0 1-1.922 3.416c-.373.23-9.461 5.703-27.98 12.862-32.938 12.874-89.828 29.27-173.717 34.32-2.139.156-4.1-1.538-4.232-3.747a3.994 3.994 0 0 1 3.748-4.231c82.857-4.989 138.891-21.127 171.312-33.794 13.055-5.047 21.299-9.259 24.797-11.16v-109.59c0-19.838-16.139-35.976-35.977-35.976H44.144c-19.838 0-35.976 16.137-35.976 35.976v109.585c2.292 1.241 6.613 3.466 12.972 6.277 27.013 11.94 86.726 32.849 183.137 38.681a3.994 3.994 0 0 1 3.748 4.231 4.002 4.002 0 0 1-3.986 3.755z"/><path fill="#3A3847" d="M267.992 279.983h-23.984c-2.21 0-3.998-1.788-3.998-3.997s1.788-3.997 3.998-3.997h23.984c2.209 0 3.996 1.788 3.996 3.997s-1.787 3.997-3.996 3.997zM283.98 263.994a3.994 3.994 0 0 1-3.996-3.997c0-13.226-10.76-23.983-23.985-23.983s-23.983 10.758-23.983 23.983a3.994 3.994 0 0 1-3.997 3.997 3.995 3.995 0 0 1-3.998-3.997c0-17.633 14.346-31.979 31.978-31.979 17.629 0 31.979 14.346 31.979 31.979a3.995 3.995 0 0 1-3.998 3.997zM387.91 124.09H124.089c-2.209 0-3.997-1.788-3.997-3.998s1.788-3.998 3.997-3.998H387.91c2.209 0 3.998 1.788 3.998 3.998s-1.789 3.998-3.998 3.998zM331.947 68.128H180.051a3.995 3.995 0 0 1-3.997-3.998V48.142c0-1.039.406-2.038 1.128-2.783.684-.703 17.395-17.203 78.817-17.203 61.342 0 78.127 16.492 78.805 17.195a3.976 3.976 0 0 1 1.141 2.791V64.13a3.995 3.995 0 0 1-3.998 3.998zm-147.898-7.995h143.902V50.042c-4.482-3.197-23.125-13.893-71.952-13.893-48.795 0-67.423 10.657-71.951 13.897v10.087z"/><path fill="#3A3847" d="M180.051 84.117a3.995 3.995 0 0 1-3.997-3.998V64.13a3.995 3.995 0 0 1 3.997-3.997 3.995 3.995 0 0 1 3.998 3.997v15.99a3.995 3.995 0 0 1-3.998 3.997zM196.041 84.117a3.995 3.995 0 0 1-3.997-3.998V64.13a3.995 3.995 0 0 1 3.997-3.997 3.995 3.995 0 0 1 3.997 3.997v15.99a3.995 3.995 0 0 1-3.997 3.997zM315.959 84.117a3.996 3.996 0 0 1-3.998-3.998V64.13c0-2.209 1.789-3.997 3.998-3.997s3.998 1.788 3.998 3.997v15.99a3.996 3.996 0 0 1-3.998 3.997zM331.947 84.117a3.994 3.994 0 0 1-3.996-3.998V64.13a3.994 3.994 0 0 1 3.996-3.997 3.995 3.995 0 0 1 3.998 3.997v15.99a3.995 3.995 0 0 1-3.998 3.997zM256 451.866a3.995 3.995 0 0 1-3.997-3.997v-79.945a3.995 3.995 0 0 1 3.997-3.998 3.997 3.997 0 0 1 3.999 3.998v79.945a3.997 3.997 0 0 1-3.999 3.997z"/></g></svg>